<mxfile host="Electron" modified="2023-06-27T10:59:06.504Z" agent="Mozilla/5.0 (Windows NT 10.0; Win64; x64) AppleWebKit/537.36 (KHTML, like Gecko) draw.io/21.5.0 Chrome/112.0.5615.204 Electron/24.5.1 Safari/537.36" etag="K_KMHZ7v1-WGZb9nvWb4" version="21.5.0" type="device">
  <diagram name="Page-1" id="asqWqT5Fa6KHK5X7sC_t">
    <mxGraphModel dx="1434" dy="836" grid="1" gridSize="10" guides="1" tooltips="1" connect="1" arrows="1" fold="1" page="1" pageScale="1" pageWidth="850" pageHeight="1100" background="none" math="0" shadow="0">
      <root>
        <mxCell id="0" />
        <mxCell id="1" parent="0" />
        <mxCell id="7w3Z7RV0m8S49XUEMPVX-1" value="&amp;nbsp;Tour" style="whiteSpace=wrap;html=1;align=center;" vertex="1" parent="1">
          <mxGeometry x="190" y="160" width="100" height="40" as="geometry" />
        </mxCell>
        <mxCell id="7w3Z7RV0m8S49XUEMPVX-2" value="&amp;nbsp;Customer" style="whiteSpace=wrap;html=1;align=center;" vertex="1" parent="1">
          <mxGeometry x="610" y="160" width="100" height="40" as="geometry" />
        </mxCell>
        <mxCell id="7w3Z7RV0m8S49XUEMPVX-5" value="" style="endArrow=none;html=1;rounded=0;entryX=0;entryY=0.5;entryDx=0;entryDy=0;" edge="1" parent="1" source="7w3Z7RV0m8S49XUEMPVX-1" target="7w3Z7RV0m8S49XUEMPVX-2">
          <mxGeometry width="50" height="50" relative="1" as="geometry">
            <mxPoint x="210" y="220" as="sourcePoint" />
            <mxPoint x="260" y="170" as="targetPoint" />
          </mxGeometry>
        </mxCell>
        <mxCell id="7w3Z7RV0m8S49XUEMPVX-30" value="M" style="edgeLabel;html=1;align=center;verticalAlign=middle;resizable=0;points=[];" vertex="1" connectable="0" parent="7w3Z7RV0m8S49XUEMPVX-5">
          <mxGeometry x="-0.8913" y="-4" relative="1" as="geometry">
            <mxPoint as="offset" />
          </mxGeometry>
        </mxCell>
        <mxCell id="7w3Z7RV0m8S49XUEMPVX-31" value="&amp;nbsp;1" style="edgeLabel;html=1;align=center;verticalAlign=middle;resizable=0;points=[];" vertex="1" connectable="0" parent="7w3Z7RV0m8S49XUEMPVX-5">
          <mxGeometry x="0.9385" y="-2" relative="1" as="geometry">
            <mxPoint as="offset" />
          </mxGeometry>
        </mxCell>
        <mxCell id="7w3Z7RV0m8S49XUEMPVX-10" value="&amp;nbsp;Date" style="ellipse;whiteSpace=wrap;html=1;align=center;" vertex="1" parent="1">
          <mxGeometry x="100" y="70" width="100" height="40" as="geometry" />
        </mxCell>
        <mxCell id="7w3Z7RV0m8S49XUEMPVX-11" value="&amp;nbsp;category" style="ellipse;whiteSpace=wrap;html=1;align=center;" vertex="1" parent="1">
          <mxGeometry x="70" y="140" width="100" height="40" as="geometry" />
        </mxCell>
        <mxCell id="7w3Z7RV0m8S49XUEMPVX-12" value="Name" style="ellipse;whiteSpace=wrap;html=1;align=center;" vertex="1" parent="1">
          <mxGeometry x="100" y="220" width="100" height="40" as="geometry" />
        </mxCell>
        <mxCell id="7w3Z7RV0m8S49XUEMPVX-14" value="&amp;nbsp;Name" style="ellipse;whiteSpace=wrap;html=1;align=center;" vertex="1" parent="1">
          <mxGeometry x="630" y="70" width="100" height="40" as="geometry" />
        </mxCell>
        <mxCell id="7w3Z7RV0m8S49XUEMPVX-15" value="&amp;nbsp;Address" style="ellipse;whiteSpace=wrap;html=1;align=center;" vertex="1" parent="1">
          <mxGeometry x="720" y="110" width="100" height="40" as="geometry" />
        </mxCell>
        <mxCell id="7w3Z7RV0m8S49XUEMPVX-16" value="&amp;nbsp;T number" style="ellipse;whiteSpace=wrap;html=1;align=center;" vertex="1" parent="1">
          <mxGeometry x="730" y="180" width="100" height="40" as="geometry" />
        </mxCell>
        <mxCell id="7w3Z7RV0m8S49XUEMPVX-19" value="" style="endArrow=none;html=1;rounded=0;entryX=0;entryY=0;entryDx=0;entryDy=0;" edge="1" parent="1" source="7w3Z7RV0m8S49XUEMPVX-76" target="7w3Z7RV0m8S49XUEMPVX-2">
          <mxGeometry relative="1" as="geometry">
            <mxPoint x="570" y="140" as="sourcePoint" />
            <mxPoint x="710" y="130" as="targetPoint" />
          </mxGeometry>
        </mxCell>
        <mxCell id="7w3Z7RV0m8S49XUEMPVX-20" value="" style="endArrow=none;html=1;rounded=0;exitX=0.451;exitY=1.019;exitDx=0;exitDy=0;exitPerimeter=0;" edge="1" parent="1" source="7w3Z7RV0m8S49XUEMPVX-14" target="7w3Z7RV0m8S49XUEMPVX-2">
          <mxGeometry relative="1" as="geometry">
            <mxPoint x="670" y="100" as="sourcePoint" />
            <mxPoint x="830" y="100" as="targetPoint" />
          </mxGeometry>
        </mxCell>
        <mxCell id="7w3Z7RV0m8S49XUEMPVX-21" value="" style="endArrow=none;html=1;rounded=0;entryX=1;entryY=0;entryDx=0;entryDy=0;exitX=0.5;exitY=1;exitDx=0;exitDy=0;" edge="1" parent="1" source="7w3Z7RV0m8S49XUEMPVX-15" target="7w3Z7RV0m8S49XUEMPVX-2">
          <mxGeometry relative="1" as="geometry">
            <mxPoint x="740" y="130" as="sourcePoint" />
            <mxPoint x="900" y="130" as="targetPoint" />
          </mxGeometry>
        </mxCell>
        <mxCell id="7w3Z7RV0m8S49XUEMPVX-22" value="" style="endArrow=none;html=1;rounded=0;" edge="1" parent="1" source="7w3Z7RV0m8S49XUEMPVX-2" target="7w3Z7RV0m8S49XUEMPVX-16">
          <mxGeometry relative="1" as="geometry">
            <mxPoint x="660" y="190" as="sourcePoint" />
            <mxPoint x="820" y="190" as="targetPoint" />
          </mxGeometry>
        </mxCell>
        <mxCell id="7w3Z7RV0m8S49XUEMPVX-24" value="" style="endArrow=none;html=1;rounded=0;" edge="1" parent="1" source="7w3Z7RV0m8S49XUEMPVX-1" target="7w3Z7RV0m8S49XUEMPVX-12">
          <mxGeometry relative="1" as="geometry">
            <mxPoint x="390" y="300" as="sourcePoint" />
            <mxPoint x="550" y="300" as="targetPoint" />
          </mxGeometry>
        </mxCell>
        <mxCell id="7w3Z7RV0m8S49XUEMPVX-25" value="" style="endArrow=none;html=1;rounded=0;" edge="1" parent="1" source="7w3Z7RV0m8S49XUEMPVX-1" target="7w3Z7RV0m8S49XUEMPVX-11">
          <mxGeometry relative="1" as="geometry">
            <mxPoint x="400" y="300" as="sourcePoint" />
            <mxPoint x="560" y="300" as="targetPoint" />
          </mxGeometry>
        </mxCell>
        <mxCell id="7w3Z7RV0m8S49XUEMPVX-26" value="" style="endArrow=none;html=1;rounded=0;" edge="1" parent="1" source="7w3Z7RV0m8S49XUEMPVX-10" target="7w3Z7RV0m8S49XUEMPVX-1">
          <mxGeometry relative="1" as="geometry">
            <mxPoint x="200" y="130" as="sourcePoint" />
            <mxPoint x="360" y="130" as="targetPoint" />
          </mxGeometry>
        </mxCell>
        <mxCell id="7w3Z7RV0m8S49XUEMPVX-27" value="" style="endArrow=none;html=1;rounded=0;" edge="1" parent="1" source="7w3Z7RV0m8S49XUEMPVX-28" target="7w3Z7RV0m8S49XUEMPVX-1">
          <mxGeometry relative="1" as="geometry">
            <mxPoint x="220" y="110" as="sourcePoint" />
            <mxPoint x="490" y="100" as="targetPoint" />
          </mxGeometry>
        </mxCell>
        <mxCell id="7w3Z7RV0m8S49XUEMPVX-28" value="&amp;nbsp;Id" style="ellipse;whiteSpace=wrap;html=1;align=center;fontStyle=4;" vertex="1" parent="1">
          <mxGeometry x="210" y="50" width="100" height="40" as="geometry" />
        </mxCell>
        <mxCell id="7w3Z7RV0m8S49XUEMPVX-29" value="&amp;nbsp;Book" style="shape=rhombus;perimeter=rhombusPerimeter;whiteSpace=wrap;html=1;align=center;" vertex="1" parent="1">
          <mxGeometry x="340" y="150" width="120" height="60" as="geometry" />
        </mxCell>
        <mxCell id="7w3Z7RV0m8S49XUEMPVX-32" value="&amp;nbsp;Tour coodinator" style="whiteSpace=wrap;html=1;align=center;" vertex="1" parent="1">
          <mxGeometry x="190" y="380" width="100" height="40" as="geometry" />
        </mxCell>
        <mxCell id="7w3Z7RV0m8S49XUEMPVX-33" value="" style="endArrow=none;html=1;rounded=0;entryX=0.5;entryY=0;entryDx=0;entryDy=0;" edge="1" parent="1" source="7w3Z7RV0m8S49XUEMPVX-1" target="7w3Z7RV0m8S49XUEMPVX-32">
          <mxGeometry relative="1" as="geometry">
            <mxPoint x="270" y="410" as="sourcePoint" />
            <mxPoint x="430" y="410" as="targetPoint" />
          </mxGeometry>
        </mxCell>
        <mxCell id="7w3Z7RV0m8S49XUEMPVX-35" value="&amp;nbsp;M&amp;nbsp;" style="edgeLabel;html=1;align=center;verticalAlign=middle;resizable=0;points=[];" vertex="1" connectable="0" parent="7w3Z7RV0m8S49XUEMPVX-33">
          <mxGeometry x="0.8556" y="-1" relative="1" as="geometry">
            <mxPoint as="offset" />
          </mxGeometry>
        </mxCell>
        <mxCell id="7w3Z7RV0m8S49XUEMPVX-36" value="1" style="edgeLabel;html=1;align=center;verticalAlign=middle;resizable=0;points=[];" vertex="1" connectable="0" parent="7w3Z7RV0m8S49XUEMPVX-33">
          <mxGeometry x="-0.8643" y="-1" relative="1" as="geometry">
            <mxPoint as="offset" />
          </mxGeometry>
        </mxCell>
        <mxCell id="7w3Z7RV0m8S49XUEMPVX-34" value="&amp;nbsp;Oraganization" style="shape=rhombus;perimeter=rhombusPerimeter;whiteSpace=wrap;html=1;align=center;rotation=90;" vertex="1" parent="1">
          <mxGeometry x="180" y="260" width="120" height="60" as="geometry" />
        </mxCell>
        <mxCell id="7w3Z7RV0m8S49XUEMPVX-37" value="&amp;nbsp;Parter Hotel" style="whiteSpace=wrap;html=1;align=center;" vertex="1" parent="1">
          <mxGeometry x="190" y="600" width="100" height="40" as="geometry" />
        </mxCell>
        <mxCell id="7w3Z7RV0m8S49XUEMPVX-38" value="" style="endArrow=none;html=1;rounded=0;" edge="1" parent="1" source="7w3Z7RV0m8S49XUEMPVX-39" target="7w3Z7RV0m8S49XUEMPVX-37">
          <mxGeometry relative="1" as="geometry">
            <mxPoint x="250" y="500" as="sourcePoint" />
            <mxPoint x="410" y="500" as="targetPoint" />
          </mxGeometry>
        </mxCell>
        <mxCell id="7w3Z7RV0m8S49XUEMPVX-77" value="&amp;nbsp;m" style="edgeLabel;html=1;align=center;verticalAlign=middle;resizable=0;points=[];" vertex="1" connectable="0" parent="7w3Z7RV0m8S49XUEMPVX-38">
          <mxGeometry x="0.8093" y="-1" relative="1" as="geometry">
            <mxPoint as="offset" />
          </mxGeometry>
        </mxCell>
        <mxCell id="7w3Z7RV0m8S49XUEMPVX-78" value="" style="edgeStyle=orthogonalEdgeStyle;rounded=0;orthogonalLoop=1;jettySize=auto;html=1;" edge="1" parent="1" source="7w3Z7RV0m8S49XUEMPVX-39" target="7w3Z7RV0m8S49XUEMPVX-34">
          <mxGeometry relative="1" as="geometry" />
        </mxCell>
        <mxCell id="7w3Z7RV0m8S49XUEMPVX-40" value="&amp;nbsp;Number of rooms" style="ellipse;whiteSpace=wrap;html=1;align=center;" vertex="1" parent="1">
          <mxGeometry x="60" y="580" width="100" height="40" as="geometry" />
        </mxCell>
        <mxCell id="7w3Z7RV0m8S49XUEMPVX-42" value="&amp;nbsp;Name" style="ellipse;whiteSpace=wrap;html=1;align=center;" vertex="1" parent="1">
          <mxGeometry x="210" y="700" width="100" height="40" as="geometry" />
        </mxCell>
        <mxCell id="7w3Z7RV0m8S49XUEMPVX-45" value="" style="endArrow=none;html=1;rounded=0;" edge="1" parent="1" source="7w3Z7RV0m8S49XUEMPVX-37" target="7w3Z7RV0m8S49XUEMPVX-50">
          <mxGeometry relative="1" as="geometry">
            <mxPoint x="380" y="650" as="sourcePoint" />
            <mxPoint x="334.845098588313" y="648.0830615165314" as="targetPoint" />
          </mxGeometry>
        </mxCell>
        <mxCell id="7w3Z7RV0m8S49XUEMPVX-46" value="" style="endArrow=none;html=1;rounded=0;" edge="1" parent="1" source="7w3Z7RV0m8S49XUEMPVX-37">
          <mxGeometry relative="1" as="geometry">
            <mxPoint x="380" y="650" as="sourcePoint" />
            <mxPoint x="256.0127388858532" y="700.0636944292653" as="targetPoint" />
          </mxGeometry>
        </mxCell>
        <mxCell id="7w3Z7RV0m8S49XUEMPVX-47" value="" style="endArrow=none;html=1;rounded=0;" edge="1" parent="1" source="7w3Z7RV0m8S49XUEMPVX-49" target="7w3Z7RV0m8S49XUEMPVX-37">
          <mxGeometry relative="1" as="geometry">
            <mxPoint x="159.49202598444163" y="663.8496048180441" as="sourcePoint" />
            <mxPoint x="260" y="670" as="targetPoint" />
          </mxGeometry>
        </mxCell>
        <mxCell id="7w3Z7RV0m8S49XUEMPVX-48" value="" style="endArrow=none;html=1;rounded=0;exitX=0.98;exitY=0.729;exitDx=0;exitDy=0;exitPerimeter=0;" edge="1" parent="1" source="7w3Z7RV0m8S49XUEMPVX-40" target="7w3Z7RV0m8S49XUEMPVX-37">
          <mxGeometry relative="1" as="geometry">
            <mxPoint x="140" y="600" as="sourcePoint" />
            <mxPoint x="250" y="600" as="targetPoint" />
          </mxGeometry>
        </mxCell>
        <mxCell id="7w3Z7RV0m8S49XUEMPVX-49" value="Room rentail&amp;nbsp;&lt;br&gt;facility" style="ellipse;shape=doubleEllipse;margin=3;whiteSpace=wrap;html=1;align=center;" vertex="1" parent="1">
          <mxGeometry x="70" y="660" width="100" height="40" as="geometry" />
        </mxCell>
        <mxCell id="7w3Z7RV0m8S49XUEMPVX-50" value="&amp;nbsp;Telephone&amp;nbsp;&lt;br&gt;number" style="ellipse;shape=doubleEllipse;margin=3;whiteSpace=wrap;html=1;align=center;" vertex="1" parent="1">
          <mxGeometry x="340" y="640" width="100" height="40" as="geometry" />
        </mxCell>
        <mxCell id="7w3Z7RV0m8S49XUEMPVX-52" value="&amp;nbsp;Tour guides" style="whiteSpace=wrap;html=1;align=center;" vertex="1" parent="1">
          <mxGeometry x="600" y="400" width="100" height="40" as="geometry" />
        </mxCell>
        <mxCell id="7w3Z7RV0m8S49XUEMPVX-53" value="&amp;nbsp;Birthday" style="ellipse;whiteSpace=wrap;html=1;align=center;" vertex="1" parent="1">
          <mxGeometry x="730" y="360" width="100" height="40" as="geometry" />
        </mxCell>
        <mxCell id="7w3Z7RV0m8S49XUEMPVX-54" value="&amp;nbsp;Name" style="ellipse;whiteSpace=wrap;html=1;align=center;" vertex="1" parent="1">
          <mxGeometry x="680" y="480" width="100" height="40" as="geometry" />
        </mxCell>
        <mxCell id="7w3Z7RV0m8S49XUEMPVX-55" value="" style="endArrow=none;html=1;rounded=0;" edge="1" parent="1" source="7w3Z7RV0m8S49XUEMPVX-52" target="7w3Z7RV0m8S49XUEMPVX-62">
          <mxGeometry relative="1" as="geometry">
            <mxPoint x="790" y="450" as="sourcePoint" />
            <mxPoint x="745.7839118535417" y="440.66244101254915" as="targetPoint" />
          </mxGeometry>
        </mxCell>
        <mxCell id="7w3Z7RV0m8S49XUEMPVX-56" value="" style="endArrow=none;html=1;rounded=0;" edge="1" parent="1" source="7w3Z7RV0m8S49XUEMPVX-52" target="7w3Z7RV0m8S49XUEMPVX-54">
          <mxGeometry relative="1" as="geometry">
            <mxPoint x="790" y="450" as="sourcePoint" />
            <mxPoint x="950" y="450" as="targetPoint" />
          </mxGeometry>
        </mxCell>
        <mxCell id="7w3Z7RV0m8S49XUEMPVX-57" value="" style="endArrow=none;html=1;rounded=0;" edge="1" parent="1" source="7w3Z7RV0m8S49XUEMPVX-61" target="7w3Z7RV0m8S49XUEMPVX-52">
          <mxGeometry relative="1" as="geometry">
            <mxPoint x="614.6252170946759" y="465.87471610696207" as="sourcePoint" />
            <mxPoint x="670" y="470" as="targetPoint" />
          </mxGeometry>
        </mxCell>
        <mxCell id="7w3Z7RV0m8S49XUEMPVX-58" value="" style="endArrow=none;html=1;rounded=0;" edge="1" parent="1" source="7w3Z7RV0m8S49XUEMPVX-53" target="7w3Z7RV0m8S49XUEMPVX-52">
          <mxGeometry relative="1" as="geometry">
            <mxPoint x="550" y="400" as="sourcePoint" />
            <mxPoint x="660" y="400" as="targetPoint" />
          </mxGeometry>
        </mxCell>
        <mxCell id="7w3Z7RV0m8S49XUEMPVX-61" value="&amp;nbsp;Id" style="ellipse;whiteSpace=wrap;html=1;align=center;fontStyle=4;" vertex="1" parent="1">
          <mxGeometry x="550" y="470" width="100" height="40" as="geometry" />
        </mxCell>
        <mxCell id="7w3Z7RV0m8S49XUEMPVX-62" value="&amp;nbsp;Tel number" style="ellipse;whiteSpace=wrap;html=1;align=center;" vertex="1" parent="1">
          <mxGeometry x="750" y="420" width="100" height="40" as="geometry" />
        </mxCell>
        <mxCell id="7w3Z7RV0m8S49XUEMPVX-63" value="&amp;nbsp;e start date" style="ellipse;whiteSpace=wrap;html=1;align=center;" vertex="1" parent="1">
          <mxGeometry x="610" y="530" width="100" height="40" as="geometry" />
        </mxCell>
        <mxCell id="7w3Z7RV0m8S49XUEMPVX-64" value="" style="endArrow=none;html=1;rounded=0;" edge="1" parent="1" source="7w3Z7RV0m8S49XUEMPVX-52" target="7w3Z7RV0m8S49XUEMPVX-63">
          <mxGeometry relative="1" as="geometry">
            <mxPoint x="640" y="650" as="sourcePoint" />
            <mxPoint x="800" y="650" as="targetPoint" />
          </mxGeometry>
        </mxCell>
        <mxCell id="7w3Z7RV0m8S49XUEMPVX-65" value="Guide by" style="shape=rhombus;perimeter=rhombusPerimeter;whiteSpace=wrap;html=1;align=center;rotation=30;" vertex="1" parent="1">
          <mxGeometry x="390" y="300" width="120" height="60" as="geometry" />
        </mxCell>
        <mxCell id="7w3Z7RV0m8S49XUEMPVX-66" value="" style="endArrow=none;html=1;rounded=0;exitX=1;exitY=1;exitDx=0;exitDy=0;entryX=0;entryY=0.5;entryDx=0;entryDy=0;" edge="1" parent="1" source="7w3Z7RV0m8S49XUEMPVX-1" target="7w3Z7RV0m8S49XUEMPVX-65">
          <mxGeometry relative="1" as="geometry">
            <mxPoint x="380" y="400" as="sourcePoint" />
            <mxPoint x="540" y="400" as="targetPoint" />
          </mxGeometry>
        </mxCell>
        <mxCell id="7w3Z7RV0m8S49XUEMPVX-71" value="1" style="edgeLabel;html=1;align=center;verticalAlign=middle;resizable=0;points=[];" vertex="1" connectable="0" parent="7w3Z7RV0m8S49XUEMPVX-66">
          <mxGeometry x="-0.7965" y="1" relative="1" as="geometry">
            <mxPoint as="offset" />
          </mxGeometry>
        </mxCell>
        <mxCell id="7w3Z7RV0m8S49XUEMPVX-69" value="" style="endArrow=none;html=1;rounded=0;exitX=1;exitY=0.5;exitDx=0;exitDy=0;" edge="1" parent="1" source="7w3Z7RV0m8S49XUEMPVX-65" target="7w3Z7RV0m8S49XUEMPVX-52">
          <mxGeometry relative="1" as="geometry">
            <mxPoint x="380" y="400" as="sourcePoint" />
            <mxPoint x="540" y="400" as="targetPoint" />
          </mxGeometry>
        </mxCell>
        <mxCell id="7w3Z7RV0m8S49XUEMPVX-70" value="&amp;nbsp;1" style="edgeLabel;html=1;align=center;verticalAlign=middle;resizable=0;points=[];" vertex="1" connectable="0" parent="7w3Z7RV0m8S49XUEMPVX-69">
          <mxGeometry x="0.7393" y="2" relative="1" as="geometry">
            <mxPoint as="offset" />
          </mxGeometry>
        </mxCell>
        <mxCell id="7w3Z7RV0m8S49XUEMPVX-72" value="&amp;nbsp;Tour equ" style="whiteSpace=wrap;html=1;align=center;" vertex="1" parent="1">
          <mxGeometry x="570" y="310" width="100" height="40" as="geometry" />
        </mxCell>
        <mxCell id="7w3Z7RV0m8S49XUEMPVX-73" value="" style="endArrow=none;html=1;rounded=0;" edge="1" parent="1" source="7w3Z7RV0m8S49XUEMPVX-2" target="7w3Z7RV0m8S49XUEMPVX-74">
          <mxGeometry relative="1" as="geometry">
            <mxPoint x="570" y="240" as="sourcePoint" />
            <mxPoint x="730" y="240" as="targetPoint" />
          </mxGeometry>
        </mxCell>
        <mxCell id="7w3Z7RV0m8S49XUEMPVX-74" value="Relationship" style="shape=rhombus;perimeter=rhombusPerimeter;whiteSpace=wrap;html=1;align=center;rotation=15;" vertex="1" parent="1">
          <mxGeometry x="580" y="230" width="120" height="40" as="geometry" />
        </mxCell>
        <mxCell id="7w3Z7RV0m8S49XUEMPVX-75" value="" style="endArrow=none;html=1;rounded=0;exitX=0.5;exitY=1;exitDx=0;exitDy=0;" edge="1" parent="1" source="7w3Z7RV0m8S49XUEMPVX-74" target="7w3Z7RV0m8S49XUEMPVX-72">
          <mxGeometry relative="1" as="geometry">
            <mxPoint x="380" y="390" as="sourcePoint" />
            <mxPoint x="540" y="390" as="targetPoint" />
          </mxGeometry>
        </mxCell>
        <mxCell id="7w3Z7RV0m8S49XUEMPVX-76" value="Id" style="ellipse;whiteSpace=wrap;html=1;align=center;fontStyle=4;" vertex="1" parent="1">
          <mxGeometry x="500" y="100" width="100" height="40" as="geometry" />
        </mxCell>
        <mxCell id="7w3Z7RV0m8S49XUEMPVX-81" value="" style="endArrow=none;html=1;rounded=0;" edge="1" parent="1" source="7w3Z7RV0m8S49XUEMPVX-79" target="7w3Z7RV0m8S49XUEMPVX-39">
          <mxGeometry relative="1" as="geometry">
            <mxPoint x="240" y="420" as="sourcePoint" />
            <mxPoint x="240" y="600" as="targetPoint" />
          </mxGeometry>
        </mxCell>
        <mxCell id="7w3Z7RV0m8S49XUEMPVX-39" value="&amp;nbsp;Reserve" style="shape=rhombus;perimeter=rhombusPerimeter;whiteSpace=wrap;html=1;align=center;rotation=90;" vertex="1" parent="1">
          <mxGeometry x="195" y="470" width="90" height="60" as="geometry" />
        </mxCell>
        <mxCell id="7w3Z7RV0m8S49XUEMPVX-83" value="" style="endArrow=none;html=1;rounded=0;" edge="1" parent="1" source="7w3Z7RV0m8S49XUEMPVX-32" target="7w3Z7RV0m8S49XUEMPVX-79">
          <mxGeometry relative="1" as="geometry">
            <mxPoint x="240" y="420" as="sourcePoint" />
            <mxPoint x="240" y="455" as="targetPoint" />
          </mxGeometry>
        </mxCell>
        <mxCell id="7w3Z7RV0m8S49XUEMPVX-79" value="&amp;nbsp;N" style="text;html=1;align=center;verticalAlign=middle;resizable=0;points=[];autosize=1;strokeColor=none;fillColor=none;" vertex="1" parent="1">
          <mxGeometry x="220" y="420" width="40" height="30" as="geometry" />
        </mxCell>
      </root>
    </mxGraphModel>
  </diagram>
</mxfile>
